<mxfile host="drawio-plugin" modified="2022-05-23T11:12:18.070Z" agent="5.0 (Windows NT 6.2; Win64; x64) AppleWebKit/537.36 (KHTML, like Gecko) Chrome/89.0.4389.114 Safari/537.36" etag="zi3Jv_-fs2thf5FOm2u6" version="15.5.4" type="embed"><diagram id="C5RBs43oDa-KdzZeNtuy" name="Page-1"><mxGraphModel dx="1033" dy="366" grid="1" gridSize="10" guides="1" tooltips="1" connect="1" arrows="1" fold="1" page="1" pageScale="1" pageWidth="827" pageHeight="1169" background="#7D7D7D" math="1" shadow="0"><root><mxCell id="WIyWlLk6GJQsqaUBKTNV-0"/><mxCell id="WIyWlLk6GJQsqaUBKTNV-1" parent="WIyWlLk6GJQsqaUBKTNV-0"/><mxCell id="VI_tDkUgzW6t_YD8F6Dv-2" style="edgeStyle=orthogonalEdgeStyle;rounded=0;orthogonalLoop=1;jettySize=auto;html=1;entryX=0;entryY=0.5;entryDx=0;entryDy=0;" parent="WIyWlLk6GJQsqaUBKTNV-1" source="VI_tDkUgzW6t_YD8F6Dv-0" target="VI_tDkUgzW6t_YD8F6Dv-1" edge="1"><mxGeometry relative="1" as="geometry"/></mxCell><mxCell id="VI_tDkUgzW6t_YD8F6Dv-0" value="Start" style="ellipse;whiteSpace=wrap;html=1;" parent="WIyWlLk6GJQsqaUBKTNV-1" vertex="1"><mxGeometry width="110" height="80" as="geometry"/></mxCell><mxCell id="VI_tDkUgzW6t_YD8F6Dv-4" style="edgeStyle=orthogonalEdgeStyle;rounded=0;orthogonalLoop=1;jettySize=auto;html=1;exitX=1;exitY=0.5;exitDx=0;exitDy=0;entryX=0;entryY=0.5;entryDx=0;entryDy=0;" parent="WIyWlLk6GJQsqaUBKTNV-1" source="VI_tDkUgzW6t_YD8F6Dv-1" target="VI_tDkUgzW6t_YD8F6Dv-3" edge="1"><mxGeometry relative="1" as="geometry"/></mxCell><mxCell id="VI_tDkUgzW6t_YD8F6Dv-1" value="create or read file for each category" style="rounded=0;whiteSpace=wrap;html=1;" parent="WIyWlLk6GJQsqaUBKTNV-1" vertex="1"><mxGeometry x="160" y="10" width="120" height="60" as="geometry"/></mxCell><mxCell id="VI_tDkUgzW6t_YD8F6Dv-25" style="edgeStyle=orthogonalEdgeStyle;rounded=0;orthogonalLoop=1;jettySize=auto;html=1;exitX=1;exitY=0.5;exitDx=0;exitDy=0;entryX=0;entryY=0.5;entryDx=0;entryDy=0;" parent="WIyWlLk6GJQsqaUBKTNV-1" source="VI_tDkUgzW6t_YD8F6Dv-3" target="VI_tDkUgzW6t_YD8F6Dv-24" edge="1"><mxGeometry relative="1" as="geometry"/></mxCell><mxCell id="VI_tDkUgzW6t_YD8F6Dv-3" value="&lt;font color=&quot;#000000&quot;&gt;get users from file&lt;/font&gt;" style="shape=process;whiteSpace=wrap;html=1;backgroundOutline=1;fillColor=#f8cecc;strokeColor=#b85450;" parent="WIyWlLk6GJQsqaUBKTNV-1" vertex="1"><mxGeometry x="320" y="10" width="120" height="60" as="geometry"/></mxCell><mxCell id="VI_tDkUgzW6t_YD8F6Dv-7" style="edgeStyle=orthogonalEdgeStyle;rounded=0;orthogonalLoop=1;jettySize=auto;html=1;exitX=1;exitY=0.5;exitDx=0;exitDy=0;entryX=0;entryY=0.5;entryDx=0;entryDy=0;fillColor=#f8cecc;strokeColor=#b85450;" parent="WIyWlLk6GJQsqaUBKTNV-1" source="VI_tDkUgzW6t_YD8F6Dv-5" target="VI_tDkUgzW6t_YD8F6Dv-6" edge="1"><mxGeometry relative="1" as="geometry"/></mxCell><mxCell id="VI_tDkUgzW6t_YD8F6Dv-5" value="&lt;font color=&quot;#000000&quot;&gt;get user from file&lt;/font&gt;" style="shape=process;whiteSpace=wrap;html=1;backgroundOutline=1;fillColor=#f8cecc;strokeColor=#b85450;" parent="WIyWlLk6GJQsqaUBKTNV-1" vertex="1"><mxGeometry y="360" width="120" height="60" as="geometry"/></mxCell><mxCell id="VI_tDkUgzW6t_YD8F6Dv-9" style="edgeStyle=orthogonalEdgeStyle;rounded=0;orthogonalLoop=1;jettySize=auto;html=1;exitX=1;exitY=0.5;exitDx=0;exitDy=0;entryX=0;entryY=0.5;entryDx=0;entryDy=0;fillColor=#f8cecc;strokeColor=#b85450;" parent="WIyWlLk6GJQsqaUBKTNV-1" source="VI_tDkUgzW6t_YD8F6Dv-6" target="VI_tDkUgzW6t_YD8F6Dv-8" edge="1"><mxGeometry relative="1" as="geometry"/></mxCell><mxCell id="VI_tDkUgzW6t_YD8F6Dv-6" value="&lt;font color=&quot;#000000&quot;&gt;read file&lt;/font&gt;" style="rounded=0;whiteSpace=wrap;html=1;fillColor=#f8cecc;strokeColor=#b85450;" parent="WIyWlLk6GJQsqaUBKTNV-1" vertex="1"><mxGeometry x="160" y="360" width="120" height="60" as="geometry"/></mxCell><mxCell id="VI_tDkUgzW6t_YD8F6Dv-11" style="edgeStyle=orthogonalEdgeStyle;rounded=0;orthogonalLoop=1;jettySize=auto;html=1;exitX=1;exitY=0.5;exitDx=0;exitDy=0;entryX=0;entryY=0.5;entryDx=0;entryDy=0;fillColor=#f8cecc;strokeColor=#b85450;" parent="WIyWlLk6GJQsqaUBKTNV-1" source="VI_tDkUgzW6t_YD8F6Dv-8" target="VI_tDkUgzW6t_YD8F6Dv-10" edge="1"><mxGeometry relative="1" as="geometry"/></mxCell><mxCell id="VI_tDkUgzW6t_YD8F6Dv-8" value="&lt;font color=&quot;#000000&quot;&gt;line == next liine of file&lt;/font&gt;" style="rounded=0;whiteSpace=wrap;html=1;fillColor=#f8cecc;strokeColor=#b85450;" parent="WIyWlLk6GJQsqaUBKTNV-1" vertex="1"><mxGeometry x="320" y="360" width="120" height="60" as="geometry"/></mxCell><mxCell id="VI_tDkUgzW6t_YD8F6Dv-13" style="edgeStyle=orthogonalEdgeStyle;rounded=0;orthogonalLoop=1;jettySize=auto;html=1;exitX=1;exitY=0.5;exitDx=0;exitDy=0;fillColor=#f8cecc;strokeColor=#b85450;" parent="WIyWlLk6GJQsqaUBKTNV-1" source="VI_tDkUgzW6t_YD8F6Dv-10" target="VI_tDkUgzW6t_YD8F6Dv-12" edge="1"><mxGeometry relative="1" as="geometry"/></mxCell><mxCell id="VI_tDkUgzW6t_YD8F6Dv-10" value="&lt;font color=&quot;#000000&quot;&gt;add line to users array&lt;/font&gt;" style="rounded=0;whiteSpace=wrap;html=1;fillColor=#f8cecc;strokeColor=#b85450;" parent="WIyWlLk6GJQsqaUBKTNV-1" vertex="1"><mxGeometry x="480" y="360" width="120" height="60" as="geometry"/></mxCell><mxCell id="VI_tDkUgzW6t_YD8F6Dv-15" style="edgeStyle=orthogonalEdgeStyle;rounded=0;orthogonalLoop=1;jettySize=auto;html=1;exitX=0.5;exitY=1;exitDx=0;exitDy=0;entryX=0.5;entryY=1;entryDx=0;entryDy=0;fillColor=#f8cecc;strokeColor=#b85450;" parent="WIyWlLk6GJQsqaUBKTNV-1" source="VI_tDkUgzW6t_YD8F6Dv-12" target="VI_tDkUgzW6t_YD8F6Dv-6" edge="1"><mxGeometry relative="1" as="geometry"/></mxCell><mxCell id="VI_tDkUgzW6t_YD8F6Dv-20" style="edgeStyle=orthogonalEdgeStyle;rounded=0;orthogonalLoop=1;jettySize=auto;html=1;entryX=0;entryY=0.5;entryDx=0;entryDy=0;fillColor=#f8cecc;strokeColor=#b85450;" parent="WIyWlLk6GJQsqaUBKTNV-1" source="VI_tDkUgzW6t_YD8F6Dv-12" target="VI_tDkUgzW6t_YD8F6Dv-19" edge="1"><mxGeometry relative="1" as="geometry"/></mxCell><mxCell id="VI_tDkUgzW6t_YD8F6Dv-12" value="&lt;font color=&quot;#000000&quot;&gt;is there another line in the file?&lt;/font&gt;" style="rhombus;whiteSpace=wrap;html=1;fillColor=#f8cecc;strokeColor=#b85450;" parent="WIyWlLk6GJQsqaUBKTNV-1" vertex="1"><mxGeometry x="640" y="350" width="80" height="80" as="geometry"/></mxCell><mxCell id="VI_tDkUgzW6t_YD8F6Dv-16" value="yes" style="text;html=1;align=center;verticalAlign=middle;whiteSpace=wrap;rounded=0;" parent="WIyWlLk6GJQsqaUBKTNV-1" vertex="1"><mxGeometry x="430" y="430" width="60" height="30" as="geometry"/></mxCell><mxCell id="VI_tDkUgzW6t_YD8F6Dv-22" style="edgeStyle=orthogonalEdgeStyle;rounded=0;orthogonalLoop=1;jettySize=auto;html=1;exitX=1;exitY=0.5;exitDx=0;exitDy=0;entryX=0;entryY=0.5;entryDx=0;entryDy=0;fillColor=#f8cecc;strokeColor=#b85450;" parent="WIyWlLk6GJQsqaUBKTNV-1" source="VI_tDkUgzW6t_YD8F6Dv-19" target="VI_tDkUgzW6t_YD8F6Dv-21" edge="1"><mxGeometry relative="1" as="geometry"/></mxCell><mxCell id="VI_tDkUgzW6t_YD8F6Dv-19" value="&lt;font color=&quot;#000000&quot;&gt;return users array&lt;/font&gt;" style="rounded=0;whiteSpace=wrap;html=1;fillColor=#f8cecc;strokeColor=#b85450;" parent="WIyWlLk6GJQsqaUBKTNV-1" vertex="1"><mxGeometry x="760" y="360" width="120" height="60" as="geometry"/></mxCell><mxCell id="VI_tDkUgzW6t_YD8F6Dv-21" value="&lt;font color=&quot;#000000&quot;&gt;end&lt;/font&gt;" style="ellipse;whiteSpace=wrap;html=1;fillColor=#f8cecc;strokeColor=#b85450;" parent="WIyWlLk6GJQsqaUBKTNV-1" vertex="1"><mxGeometry x="920" y="350" width="120" height="80" as="geometry"/></mxCell><mxCell id="VI_tDkUgzW6t_YD8F6Dv-23" value="no" style="text;html=1;align=center;verticalAlign=middle;whiteSpace=wrap;rounded=0;" parent="WIyWlLk6GJQsqaUBKTNV-1" vertex="1"><mxGeometry x="710" y="370" width="60" height="30" as="geometry"/></mxCell><mxCell id="VI_tDkUgzW6t_YD8F6Dv-73" value="" style="edgeStyle=orthogonalEdgeStyle;rounded=0;orthogonalLoop=1;jettySize=auto;html=1;" parent="WIyWlLk6GJQsqaUBKTNV-1" source="VI_tDkUgzW6t_YD8F6Dv-24" target="VI_tDkUgzW6t_YD8F6Dv-72" edge="1"><mxGeometry relative="1" as="geometry"/></mxCell><mxCell id="VI_tDkUgzW6t_YD8F6Dv-76" value="" style="edgeStyle=orthogonalEdgeStyle;rounded=0;orthogonalLoop=1;jettySize=auto;html=1;" parent="WIyWlLk6GJQsqaUBKTNV-1" source="VI_tDkUgzW6t_YD8F6Dv-24" target="VI_tDkUgzW6t_YD8F6Dv-75" edge="1"><mxGeometry relative="1" as="geometry"/></mxCell><mxCell id="VI_tDkUgzW6t_YD8F6Dv-24" value="&lt;font color=&quot;#000000&quot;&gt;login&lt;/font&gt;" style="shape=process;whiteSpace=wrap;html=1;backgroundOutline=1;fillColor=#ffe6cc;strokeColor=#d79b00;" parent="WIyWlLk6GJQsqaUBKTNV-1" vertex="1"><mxGeometry x="480" y="10" width="120" height="60" as="geometry"/></mxCell><mxCell id="VI_tDkUgzW6t_YD8F6Dv-28" style="edgeStyle=orthogonalEdgeStyle;rounded=0;orthogonalLoop=1;jettySize=auto;html=1;exitX=1;exitY=0.5;exitDx=0;exitDy=0;fillColor=#ffe6cc;strokeColor=#d79b00;" parent="WIyWlLk6GJQsqaUBKTNV-1" source="VI_tDkUgzW6t_YD8F6Dv-26" target="VI_tDkUgzW6t_YD8F6Dv-27" edge="1"><mxGeometry relative="1" as="geometry"/></mxCell><mxCell id="VI_tDkUgzW6t_YD8F6Dv-26" value="&lt;font color=&quot;#000000&quot;&gt;login&lt;/font&gt;" style="shape=process;whiteSpace=wrap;html=1;backgroundOutline=1;fillColor=#ffe6cc;strokeColor=#d79b00;" parent="WIyWlLk6GJQsqaUBKTNV-1" vertex="1"><mxGeometry y="500" width="120" height="60" as="geometry"/></mxCell><mxCell id="VI_tDkUgzW6t_YD8F6Dv-31" style="edgeStyle=orthogonalEdgeStyle;rounded=0;orthogonalLoop=1;jettySize=auto;html=1;exitX=1;exitY=0.5;exitDx=0;exitDy=0;fillColor=#ffe6cc;strokeColor=#d79b00;" parent="WIyWlLk6GJQsqaUBKTNV-1" source="VI_tDkUgzW6t_YD8F6Dv-27" target="VI_tDkUgzW6t_YD8F6Dv-30" edge="1"><mxGeometry relative="1" as="geometry"/></mxCell><mxCell id="VI_tDkUgzW6t_YD8F6Dv-47" value="" style="edgeStyle=orthogonalEdgeStyle;rounded=0;orthogonalLoop=1;jettySize=auto;html=1;fillColor=#ffe6cc;strokeColor=#d79b00;" parent="WIyWlLk6GJQsqaUBKTNV-1" source="VI_tDkUgzW6t_YD8F6Dv-27" target="VI_tDkUgzW6t_YD8F6Dv-46" edge="1"><mxGeometry relative="1" as="geometry"/></mxCell><mxCell id="VI_tDkUgzW6t_YD8F6Dv-27" value="&lt;font color=&quot;#000000&quot;&gt;do you need to create an account&lt;/font&gt;" style="shape=parallelogram;perimeter=parallelogramPerimeter;whiteSpace=wrap;html=1;fixedSize=1;fillColor=#ffe6cc;strokeColor=#d79b00;" parent="WIyWlLk6GJQsqaUBKTNV-1" vertex="1"><mxGeometry x="160" y="500" width="120" height="60" as="geometry"/></mxCell><mxCell id="VI_tDkUgzW6t_YD8F6Dv-33" style="edgeStyle=orthogonalEdgeStyle;rounded=0;orthogonalLoop=1;jettySize=auto;html=1;exitX=1;exitY=0.5;exitDx=0;exitDy=0;entryX=0;entryY=0.5;entryDx=0;entryDy=0;fillColor=#ffe6cc;strokeColor=#d79b00;" parent="WIyWlLk6GJQsqaUBKTNV-1" source="VI_tDkUgzW6t_YD8F6Dv-30" target="VI_tDkUgzW6t_YD8F6Dv-32" edge="1"><mxGeometry relative="1" as="geometry"/></mxCell><mxCell id="VI_tDkUgzW6t_YD8F6Dv-30" value="&lt;font color=&quot;#000000&quot;&gt;what is your username?&lt;/font&gt;" style="shape=parallelogram;perimeter=parallelogramPerimeter;whiteSpace=wrap;html=1;fixedSize=1;fillColor=#ffe6cc;strokeColor=#d79b00;" parent="WIyWlLk6GJQsqaUBKTNV-1" vertex="1"><mxGeometry x="320" y="500" width="120" height="60" as="geometry"/></mxCell><mxCell id="VI_tDkUgzW6t_YD8F6Dv-35" style="edgeStyle=orthogonalEdgeStyle;rounded=0;orthogonalLoop=1;jettySize=auto;html=1;exitX=1;exitY=0.5;exitDx=0;exitDy=0;fillColor=#ffe6cc;strokeColor=#d79b00;" parent="WIyWlLk6GJQsqaUBKTNV-1" source="VI_tDkUgzW6t_YD8F6Dv-32" target="VI_tDkUgzW6t_YD8F6Dv-34" edge="1"><mxGeometry relative="1" as="geometry"/></mxCell><mxCell id="VI_tDkUgzW6t_YD8F6Dv-32" value="&lt;font color=&quot;#000000&quot;&gt;set username&lt;/font&gt;" style="rounded=0;whiteSpace=wrap;html=1;fillColor=#ffe6cc;strokeColor=#d79b00;" parent="WIyWlLk6GJQsqaUBKTNV-1" vertex="1"><mxGeometry x="480" y="500" width="120" height="60" as="geometry"/></mxCell><mxCell id="VI_tDkUgzW6t_YD8F6Dv-38" value="" style="edgeStyle=orthogonalEdgeStyle;rounded=0;orthogonalLoop=1;jettySize=auto;html=1;fillColor=#ffe6cc;strokeColor=#d79b00;" parent="WIyWlLk6GJQsqaUBKTNV-1" source="VI_tDkUgzW6t_YD8F6Dv-34" target="VI_tDkUgzW6t_YD8F6Dv-37" edge="1"><mxGeometry relative="1" as="geometry"/></mxCell><mxCell id="VI_tDkUgzW6t_YD8F6Dv-34" value="&lt;font color=&quot;#000000&quot;&gt;what is your password&lt;/font&gt;" style="shape=parallelogram;perimeter=parallelogramPerimeter;whiteSpace=wrap;html=1;fixedSize=1;fillColor=#ffe6cc;strokeColor=#d79b00;" parent="WIyWlLk6GJQsqaUBKTNV-1" vertex="1"><mxGeometry x="640" y="500" width="120" height="60" as="geometry"/></mxCell><mxCell id="VI_tDkUgzW6t_YD8F6Dv-36" value="yes" style="text;html=1;align=center;verticalAlign=middle;whiteSpace=wrap;rounded=0;" parent="WIyWlLk6GJQsqaUBKTNV-1" vertex="1"><mxGeometry x="270" y="510" width="60" height="30" as="geometry"/></mxCell><mxCell id="VI_tDkUgzW6t_YD8F6Dv-40" value="" style="edgeStyle=orthogonalEdgeStyle;rounded=0;orthogonalLoop=1;jettySize=auto;html=1;fillColor=#ffe6cc;strokeColor=#d79b00;" parent="WIyWlLk6GJQsqaUBKTNV-1" source="VI_tDkUgzW6t_YD8F6Dv-37" target="VI_tDkUgzW6t_YD8F6Dv-39" edge="1"><mxGeometry relative="1" as="geometry"/></mxCell><mxCell id="VI_tDkUgzW6t_YD8F6Dv-37" value="&lt;font color=&quot;#000000&quot;&gt;set password&lt;/font&gt;" style="rounded=0;whiteSpace=wrap;html=1;fillColor=#ffe6cc;strokeColor=#d79b00;" parent="WIyWlLk6GJQsqaUBKTNV-1" vertex="1"><mxGeometry x="800" y="500" width="120" height="60" as="geometry"/></mxCell><mxCell id="VI_tDkUgzW6t_YD8F6Dv-42" value="" style="edgeStyle=orthogonalEdgeStyle;rounded=0;orthogonalLoop=1;jettySize=auto;html=1;fillColor=#ffe6cc;strokeColor=#d79b00;" parent="WIyWlLk6GJQsqaUBKTNV-1" source="VI_tDkUgzW6t_YD8F6Dv-39" target="VI_tDkUgzW6t_YD8F6Dv-41" edge="1"><mxGeometry relative="1" as="geometry"/></mxCell><mxCell id="VI_tDkUgzW6t_YD8F6Dv-39" value="&lt;font color=&quot;#000000&quot;&gt;write to users file, username and password&lt;/font&gt;" style="rounded=0;whiteSpace=wrap;html=1;fillColor=#ffe6cc;strokeColor=#d79b00;" parent="WIyWlLk6GJQsqaUBKTNV-1" vertex="1"><mxGeometry x="960" y="500" width="120" height="60" as="geometry"/></mxCell><mxCell id="VI_tDkUgzW6t_YD8F6Dv-45" value="" style="edgeStyle=orthogonalEdgeStyle;rounded=0;orthogonalLoop=1;jettySize=auto;html=1;entryX=1;entryY=0.5;entryDx=0;entryDy=0;fillColor=#ffe6cc;strokeColor=#d79b00;" parent="WIyWlLk6GJQsqaUBKTNV-1" source="VI_tDkUgzW6t_YD8F6Dv-41" target="VI_tDkUgzW6t_YD8F6Dv-46" edge="1"><mxGeometry relative="1" as="geometry"><mxPoint x="520" y="650" as="targetPoint"/><Array as="points"><mxPoint x="1270" y="530"/><mxPoint x="1270" y="630"/></Array></mxGeometry></mxCell><mxCell id="VI_tDkUgzW6t_YD8F6Dv-41" value="&lt;font color=&quot;#000000&quot;&gt;get user from file&lt;/font&gt;" style="shape=process;whiteSpace=wrap;html=1;backgroundOutline=1;fillColor=#f8cecc;strokeColor=#b85450;" parent="WIyWlLk6GJQsqaUBKTNV-1" vertex="1"><mxGeometry x="1121" y="500" width="120" height="60" as="geometry"/></mxCell><mxCell id="VI_tDkUgzW6t_YD8F6Dv-49" value="" style="edgeStyle=orthogonalEdgeStyle;rounded=0;orthogonalLoop=1;jettySize=auto;html=1;fillColor=#ffe6cc;strokeColor=#d79b00;" parent="WIyWlLk6GJQsqaUBKTNV-1" source="VI_tDkUgzW6t_YD8F6Dv-46" target="VI_tDkUgzW6t_YD8F6Dv-48" edge="1"><mxGeometry relative="1" as="geometry"/></mxCell><mxCell id="VI_tDkUgzW6t_YD8F6Dv-46" value="&lt;font color=&quot;#000000&quot;&gt;what is your username&lt;/font&gt;" style="shape=parallelogram;perimeter=parallelogramPerimeter;whiteSpace=wrap;html=1;fixedSize=1;fillColor=#ffe6cc;strokeColor=#d79b00;" parent="WIyWlLk6GJQsqaUBKTNV-1" vertex="1"><mxGeometry x="160" y="600" width="120" height="60" as="geometry"/></mxCell><mxCell id="VI_tDkUgzW6t_YD8F6Dv-51" value="" style="edgeStyle=orthogonalEdgeStyle;rounded=0;orthogonalLoop=1;jettySize=auto;html=1;fillColor=#ffe6cc;strokeColor=#d79b00;" parent="WIyWlLk6GJQsqaUBKTNV-1" source="VI_tDkUgzW6t_YD8F6Dv-48" target="VI_tDkUgzW6t_YD8F6Dv-50" edge="1"><mxGeometry relative="1" as="geometry"/></mxCell><mxCell id="VI_tDkUgzW6t_YD8F6Dv-48" value="&lt;font color=&quot;#000000&quot;&gt;set username&lt;/font&gt;" style="rounded=0;whiteSpace=wrap;html=1;fillColor=#ffe6cc;strokeColor=#d79b00;" parent="WIyWlLk6GJQsqaUBKTNV-1" vertex="1"><mxGeometry x="160" y="700" width="120" height="60" as="geometry"/></mxCell><mxCell id="VI_tDkUgzW6t_YD8F6Dv-53" value="" style="edgeStyle=orthogonalEdgeStyle;rounded=0;orthogonalLoop=1;jettySize=auto;html=1;fillColor=#ffe6cc;strokeColor=#d79b00;" parent="WIyWlLk6GJQsqaUBKTNV-1" source="VI_tDkUgzW6t_YD8F6Dv-50" target="VI_tDkUgzW6t_YD8F6Dv-52" edge="1"><mxGeometry relative="1" as="geometry"/></mxCell><mxCell id="VI_tDkUgzW6t_YD8F6Dv-50" value="&lt;font color=&quot;#000000&quot;&gt;what is your pasword&lt;/font&gt;" style="shape=parallelogram;perimeter=parallelogramPerimeter;whiteSpace=wrap;html=1;fixedSize=1;fillColor=#ffe6cc;strokeColor=#d79b00;" parent="WIyWlLk6GJQsqaUBKTNV-1" vertex="1"><mxGeometry x="320" y="700" width="120" height="60" as="geometry"/></mxCell><mxCell id="VI_tDkUgzW6t_YD8F6Dv-55" value="" style="edgeStyle=orthogonalEdgeStyle;rounded=0;orthogonalLoop=1;jettySize=auto;html=1;fillColor=#ffe6cc;strokeColor=#d79b00;" parent="WIyWlLk6GJQsqaUBKTNV-1" source="VI_tDkUgzW6t_YD8F6Dv-52" target="VI_tDkUgzW6t_YD8F6Dv-54" edge="1"><mxGeometry relative="1" as="geometry"/></mxCell><mxCell id="VI_tDkUgzW6t_YD8F6Dv-52" value="&lt;font color=&quot;#000000&quot;&gt;set password&lt;/font&gt;" style="rounded=0;whiteSpace=wrap;html=1;fillColor=#ffe6cc;strokeColor=#d79b00;" parent="WIyWlLk6GJQsqaUBKTNV-1" vertex="1"><mxGeometry x="320" y="800" width="120" height="60" as="geometry"/></mxCell><mxCell id="VI_tDkUgzW6t_YD8F6Dv-57" value="" style="edgeStyle=orthogonalEdgeStyle;rounded=0;orthogonalLoop=1;jettySize=auto;html=1;fillColor=#ffe6cc;strokeColor=#d79b00;" parent="WIyWlLk6GJQsqaUBKTNV-1" source="VI_tDkUgzW6t_YD8F6Dv-54" target="VI_tDkUgzW6t_YD8F6Dv-56" edge="1"><mxGeometry relative="1" as="geometry"/></mxCell><mxCell id="VI_tDkUgzW6t_YD8F6Dv-64" value="" style="edgeStyle=orthogonalEdgeStyle;rounded=0;orthogonalLoop=1;jettySize=auto;html=1;fillColor=#ffe6cc;strokeColor=#d79b00;" parent="WIyWlLk6GJQsqaUBKTNV-1" source="VI_tDkUgzW6t_YD8F6Dv-54" target="VI_tDkUgzW6t_YD8F6Dv-63" edge="1"><mxGeometry relative="1" as="geometry"/></mxCell><mxCell id="VI_tDkUgzW6t_YD8F6Dv-54" value="&lt;font color=&quot;#000000&quot;&gt;does users file contain username + password?&lt;/font&gt;" style="rounded=0;whiteSpace=wrap;html=1;fillColor=#ffe6cc;strokeColor=#d79b00;" parent="WIyWlLk6GJQsqaUBKTNV-1" vertex="1"><mxGeometry x="320" y="900" width="120" height="60" as="geometry"/></mxCell><mxCell id="VI_tDkUgzW6t_YD8F6Dv-60" value="" style="edgeStyle=orthogonalEdgeStyle;rounded=0;orthogonalLoop=1;jettySize=auto;html=1;fillColor=#ffe6cc;strokeColor=#d79b00;" parent="WIyWlLk6GJQsqaUBKTNV-1" source="VI_tDkUgzW6t_YD8F6Dv-56" target="VI_tDkUgzW6t_YD8F6Dv-59" edge="1"><mxGeometry relative="1" as="geometry"/></mxCell><mxCell id="VI_tDkUgzW6t_YD8F6Dv-56" value="&lt;font color=&quot;#000000&quot;&gt;print welcome + username&lt;/font&gt;" style="rounded=0;whiteSpace=wrap;html=1;fillColor=#ffe6cc;strokeColor=#d79b00;" parent="WIyWlLk6GJQsqaUBKTNV-1" vertex="1"><mxGeometry x="480" y="900" width="120" height="60" as="geometry"/></mxCell><mxCell id="VI_tDkUgzW6t_YD8F6Dv-62" value="" style="edgeStyle=orthogonalEdgeStyle;rounded=0;orthogonalLoop=1;jettySize=auto;html=1;fillColor=#ffe6cc;strokeColor=#d79b00;" parent="WIyWlLk6GJQsqaUBKTNV-1" source="VI_tDkUgzW6t_YD8F6Dv-59" target="VI_tDkUgzW6t_YD8F6Dv-61" edge="1"><mxGeometry relative="1" as="geometry"/></mxCell><mxCell id="VI_tDkUgzW6t_YD8F6Dv-59" value="&lt;font color=&quot;#000000&quot;&gt;return true&lt;/font&gt;" style="rounded=0;whiteSpace=wrap;html=1;fillColor=#ffe6cc;strokeColor=#d79b00;" parent="WIyWlLk6GJQsqaUBKTNV-1" vertex="1"><mxGeometry x="640" y="900" width="120" height="60" as="geometry"/></mxCell><mxCell id="VI_tDkUgzW6t_YD8F6Dv-61" value="&lt;font color=&quot;#000000&quot;&gt;end&lt;/font&gt;" style="ellipse;whiteSpace=wrap;html=1;fillColor=#ffe6cc;strokeColor=#d79b00;" parent="WIyWlLk6GJQsqaUBKTNV-1" vertex="1"><mxGeometry x="800" y="890" width="120" height="80" as="geometry"/></mxCell><mxCell id="VI_tDkUgzW6t_YD8F6Dv-66" value="" style="edgeStyle=orthogonalEdgeStyle;rounded=0;orthogonalLoop=1;jettySize=auto;html=1;fillColor=#ffe6cc;strokeColor=#d79b00;" parent="WIyWlLk6GJQsqaUBKTNV-1" source="VI_tDkUgzW6t_YD8F6Dv-63" target="VI_tDkUgzW6t_YD8F6Dv-65" edge="1"><mxGeometry relative="1" as="geometry"/></mxCell><mxCell id="VI_tDkUgzW6t_YD8F6Dv-63" value="&lt;font color=&quot;#000000&quot;&gt;print invalid username or password&lt;/font&gt;" style="rounded=0;whiteSpace=wrap;html=1;fillColor=#ffe6cc;strokeColor=#d79b00;" parent="WIyWlLk6GJQsqaUBKTNV-1" vertex="1"><mxGeometry x="320" y="1000" width="120" height="60" as="geometry"/></mxCell><mxCell id="VI_tDkUgzW6t_YD8F6Dv-68" value="" style="edgeStyle=orthogonalEdgeStyle;rounded=0;orthogonalLoop=1;jettySize=auto;html=1;fillColor=#ffe6cc;strokeColor=#d79b00;" parent="WIyWlLk6GJQsqaUBKTNV-1" source="VI_tDkUgzW6t_YD8F6Dv-65" target="VI_tDkUgzW6t_YD8F6Dv-67" edge="1"><mxGeometry relative="1" as="geometry"/></mxCell><mxCell id="VI_tDkUgzW6t_YD8F6Dv-65" value="&lt;font color=&quot;#000000&quot;&gt;return false&lt;/font&gt;" style="rounded=0;whiteSpace=wrap;html=1;fillColor=#ffe6cc;strokeColor=#d79b00;" parent="WIyWlLk6GJQsqaUBKTNV-1" vertex="1"><mxGeometry x="480" y="1000" width="120" height="60" as="geometry"/></mxCell><mxCell id="VI_tDkUgzW6t_YD8F6Dv-67" value="&lt;font color=&quot;#000000&quot;&gt;end&lt;/font&gt;" style="ellipse;whiteSpace=wrap;html=1;fillColor=#ffe6cc;strokeColor=#d79b00;" parent="WIyWlLk6GJQsqaUBKTNV-1" vertex="1"><mxGeometry x="640" y="990" width="120" height="80" as="geometry"/></mxCell><mxCell id="VI_tDkUgzW6t_YD8F6Dv-69" value="no" style="text;html=1;align=center;verticalAlign=middle;whiteSpace=wrap;rounded=0;" parent="WIyWlLk6GJQsqaUBKTNV-1" vertex="1"><mxGeometry x="180" y="560" width="60" height="30" as="geometry"/></mxCell><mxCell id="VI_tDkUgzW6t_YD8F6Dv-70" value="yes" style="text;html=1;align=center;verticalAlign=middle;whiteSpace=wrap;rounded=0;" parent="WIyWlLk6GJQsqaUBKTNV-1" vertex="1"><mxGeometry x="430" y="910" width="60" height="30" as="geometry"/></mxCell><mxCell id="VI_tDkUgzW6t_YD8F6Dv-71" value="no" style="text;html=1;align=center;verticalAlign=middle;whiteSpace=wrap;rounded=0;" parent="WIyWlLk6GJQsqaUBKTNV-1" vertex="1"><mxGeometry x="340" y="960" width="60" height="30" as="geometry"/></mxCell><mxCell id="VI_tDkUgzW6t_YD8F6Dv-128" value="" style="edgeStyle=orthogonalEdgeStyle;rounded=0;orthogonalLoop=1;jettySize=auto;html=1;" parent="WIyWlLk6GJQsqaUBKTNV-1" source="VI_tDkUgzW6t_YD8F6Dv-72" target="VI_tDkUgzW6t_YD8F6Dv-127" edge="1"><mxGeometry relative="1" as="geometry"/></mxCell><mxCell id="VI_tDkUgzW6t_YD8F6Dv-72" value="&lt;font color=&quot;#000000&quot;&gt;get choice&lt;/font&gt;" style="shape=process;whiteSpace=wrap;html=1;backgroundOutline=1;fillColor=#d5e8d4;strokeColor=#82b366;" parent="WIyWlLk6GJQsqaUBKTNV-1" vertex="1"><mxGeometry x="640" y="10" width="120" height="60" as="geometry"/></mxCell><mxCell id="VI_tDkUgzW6t_YD8F6Dv-75" value="end" style="ellipse;whiteSpace=wrap;html=1;" parent="WIyWlLk6GJQsqaUBKTNV-1" vertex="1"><mxGeometry x="480" y="110" width="120" height="80" as="geometry"/></mxCell><mxCell id="VI_tDkUgzW6t_YD8F6Dv-77" value="false" style="text;html=1;strokeColor=none;fillColor=none;align=center;verticalAlign=middle;whiteSpace=wrap;rounded=0;" parent="WIyWlLk6GJQsqaUBKTNV-1" vertex="1"><mxGeometry x="490" y="70" width="60" height="30" as="geometry"/></mxCell><mxCell id="VI_tDkUgzW6t_YD8F6Dv-79" value="true" style="text;html=1;strokeColor=none;fillColor=none;align=center;verticalAlign=middle;whiteSpace=wrap;rounded=0;" parent="WIyWlLk6GJQsqaUBKTNV-1" vertex="1"><mxGeometry x="590" y="20" width="60" height="30" as="geometry"/></mxCell><mxCell id="VI_tDkUgzW6t_YD8F6Dv-82" value="" style="edgeStyle=orthogonalEdgeStyle;rounded=0;orthogonalLoop=1;jettySize=auto;html=1;startArrow=none;" parent="WIyWlLk6GJQsqaUBKTNV-1" source="hmivGs_bVHkpQ192sONv-41" target="VI_tDkUgzW6t_YD8F6Dv-81" edge="1"><mxGeometry relative="1" as="geometry"/></mxCell><mxCell id="VI_tDkUgzW6t_YD8F6Dv-80" value="&lt;font color=&quot;#000000&quot;&gt;get choice&lt;/font&gt;" style="shape=process;whiteSpace=wrap;html=1;backgroundOutline=1;fillColor=#d5e8d4;strokeColor=#82b366;" parent="WIyWlLk6GJQsqaUBKTNV-1" vertex="1"><mxGeometry y="1220" width="120" height="60" as="geometry"/></mxCell><mxCell id="VI_tDkUgzW6t_YD8F6Dv-84" value="" style="edgeStyle=orthogonalEdgeStyle;rounded=0;orthogonalLoop=1;jettySize=auto;html=1;" parent="WIyWlLk6GJQsqaUBKTNV-1" source="VI_tDkUgzW6t_YD8F6Dv-81" target="VI_tDkUgzW6t_YD8F6Dv-83" edge="1"><mxGeometry relative="1" as="geometry"/></mxCell><mxCell id="VI_tDkUgzW6t_YD8F6Dv-86" value="" style="edgeStyle=orthogonalEdgeStyle;rounded=0;orthogonalLoop=1;jettySize=auto;html=1;" parent="WIyWlLk6GJQsqaUBKTNV-1" source="VI_tDkUgzW6t_YD8F6Dv-81" target="VI_tDkUgzW6t_YD8F6Dv-85" edge="1"><mxGeometry relative="1" as="geometry"/></mxCell><mxCell id="VI_tDkUgzW6t_YD8F6Dv-88" value="" style="edgeStyle=orthogonalEdgeStyle;rounded=0;orthogonalLoop=1;jettySize=auto;html=1;" parent="WIyWlLk6GJQsqaUBKTNV-1" source="VI_tDkUgzW6t_YD8F6Dv-81" target="VI_tDkUgzW6t_YD8F6Dv-87" edge="1"><mxGeometry relative="1" as="geometry"/></mxCell><mxCell id="VI_tDkUgzW6t_YD8F6Dv-81" value="&lt;font color=&quot;#000000&quot;&gt;what category of product do you want to manage&amp;nbsp;&lt;/font&gt;" style="shape=parallelogram;perimeter=parallelogramPerimeter;whiteSpace=wrap;html=1;fixedSize=1;fillColor=#d5e8d4;strokeColor=#82b366;" parent="WIyWlLk6GJQsqaUBKTNV-1" vertex="1"><mxGeometry x="430" y="1220" width="120" height="60" as="geometry"/></mxCell><mxCell id="VI_tDkUgzW6t_YD8F6Dv-95" value="" style="edgeStyle=orthogonalEdgeStyle;rounded=0;orthogonalLoop=1;jettySize=auto;html=1;" parent="WIyWlLk6GJQsqaUBKTNV-1" source="VI_tDkUgzW6t_YD8F6Dv-83" target="VI_tDkUgzW6t_YD8F6Dv-94" edge="1"><mxGeometry relative="1" as="geometry"/></mxCell><mxCell id="VI_tDkUgzW6t_YD8F6Dv-83" value="&lt;font color=&quot;#000000&quot;&gt;cameras&lt;/font&gt;" style="shape=process;whiteSpace=wrap;html=1;backgroundOutline=1;fillColor=#dae8fc;strokeColor=#6c8ebf;" parent="WIyWlLk6GJQsqaUBKTNV-1" vertex="1"><mxGeometry x="590" y="1220" width="120" height="60" as="geometry"/></mxCell><mxCell id="VI_tDkUgzW6t_YD8F6Dv-97" value="" style="edgeStyle=orthogonalEdgeStyle;rounded=0;orthogonalLoop=1;jettySize=auto;html=1;" parent="WIyWlLk6GJQsqaUBKTNV-1" source="VI_tDkUgzW6t_YD8F6Dv-85" target="VI_tDkUgzW6t_YD8F6Dv-96" edge="1"><mxGeometry relative="1" as="geometry"/></mxCell><mxCell id="VI_tDkUgzW6t_YD8F6Dv-85" value="&lt;font color=&quot;#000000&quot;&gt;pc hardware&lt;/font&gt;" style="shape=process;whiteSpace=wrap;html=1;backgroundOutline=1;fillColor=#dae8fc;strokeColor=#6c8ebf;" parent="WIyWlLk6GJQsqaUBKTNV-1" vertex="1"><mxGeometry x="430" y="1320" width="120" height="60" as="geometry"/></mxCell><mxCell id="VI_tDkUgzW6t_YD8F6Dv-93" value="" style="edgeStyle=orthogonalEdgeStyle;rounded=0;orthogonalLoop=1;jettySize=auto;html=1;" parent="WIyWlLk6GJQsqaUBKTNV-1" source="VI_tDkUgzW6t_YD8F6Dv-87" target="VI_tDkUgzW6t_YD8F6Dv-92" edge="1"><mxGeometry relative="1" as="geometry"/></mxCell><mxCell id="VI_tDkUgzW6t_YD8F6Dv-87" value="&lt;font color=&quot;#000000&quot;&gt;phones&lt;/font&gt;" style="shape=process;whiteSpace=wrap;html=1;backgroundOutline=1;fillColor=#dae8fc;strokeColor=#6c8ebf;" parent="WIyWlLk6GJQsqaUBKTNV-1" vertex="1"><mxGeometry x="430" y="1120" width="120" height="60" as="geometry"/></mxCell><mxCell id="VI_tDkUgzW6t_YD8F6Dv-89" value="1" style="text;html=1;strokeColor=none;fillColor=none;align=center;verticalAlign=middle;whiteSpace=wrap;rounded=0;" parent="WIyWlLk6GJQsqaUBKTNV-1" vertex="1"><mxGeometry x="540" y="1230" width="60" height="30" as="geometry"/></mxCell><mxCell id="VI_tDkUgzW6t_YD8F6Dv-90" value="2" style="text;html=1;strokeColor=none;fillColor=none;align=center;verticalAlign=middle;whiteSpace=wrap;rounded=0;" parent="WIyWlLk6GJQsqaUBKTNV-1" vertex="1"><mxGeometry x="450" y="1280" width="60" height="30" as="geometry"/></mxCell><mxCell id="VI_tDkUgzW6t_YD8F6Dv-91" value="3" style="text;html=1;strokeColor=none;fillColor=none;align=center;verticalAlign=middle;whiteSpace=wrap;rounded=0;" parent="WIyWlLk6GJQsqaUBKTNV-1" vertex="1"><mxGeometry x="450" y="1190" width="60" height="30" as="geometry"/></mxCell><mxCell id="VI_tDkUgzW6t_YD8F6Dv-99" value="" style="edgeStyle=orthogonalEdgeStyle;rounded=0;orthogonalLoop=1;jettySize=auto;html=1;" parent="WIyWlLk6GJQsqaUBKTNV-1" source="VI_tDkUgzW6t_YD8F6Dv-92" target="VI_tDkUgzW6t_YD8F6Dv-98" edge="1"><mxGeometry relative="1" as="geometry"/></mxCell><mxCell id="VI_tDkUgzW6t_YD8F6Dv-92" value="&lt;font color=&quot;#000000&quot;&gt;return 3&lt;/font&gt;" style="rounded=0;whiteSpace=wrap;html=1;fillColor=#d5e8d4;strokeColor=#82b366;" parent="WIyWlLk6GJQsqaUBKTNV-1" vertex="1"><mxGeometry x="590" y="1120" width="120" height="60" as="geometry"/></mxCell><mxCell id="VI_tDkUgzW6t_YD8F6Dv-101" value="" style="edgeStyle=orthogonalEdgeStyle;rounded=0;orthogonalLoop=1;jettySize=auto;html=1;" parent="WIyWlLk6GJQsqaUBKTNV-1" source="VI_tDkUgzW6t_YD8F6Dv-94" target="VI_tDkUgzW6t_YD8F6Dv-100" edge="1"><mxGeometry relative="1" as="geometry"/></mxCell><mxCell id="VI_tDkUgzW6t_YD8F6Dv-94" value="&lt;font color=&quot;#000000&quot;&gt;return 1&lt;/font&gt;" style="whiteSpace=wrap;html=1;fillColor=#d5e8d4;strokeColor=#82b366;" parent="WIyWlLk6GJQsqaUBKTNV-1" vertex="1"><mxGeometry x="750" y="1220" width="120" height="60" as="geometry"/></mxCell><mxCell id="VI_tDkUgzW6t_YD8F6Dv-103" value="" style="edgeStyle=orthogonalEdgeStyle;rounded=0;orthogonalLoop=1;jettySize=auto;html=1;" parent="WIyWlLk6GJQsqaUBKTNV-1" source="VI_tDkUgzW6t_YD8F6Dv-96" target="VI_tDkUgzW6t_YD8F6Dv-102" edge="1"><mxGeometry relative="1" as="geometry"/></mxCell><mxCell id="VI_tDkUgzW6t_YD8F6Dv-96" value="&lt;font color=&quot;#000000&quot;&gt;return 2&lt;/font&gt;" style="whiteSpace=wrap;html=1;fillColor=#d5e8d4;strokeColor=#82b366;" parent="WIyWlLk6GJQsqaUBKTNV-1" vertex="1"><mxGeometry x="590" y="1320" width="120" height="60" as="geometry"/></mxCell><mxCell id="VI_tDkUgzW6t_YD8F6Dv-98" value="&lt;font color=&quot;#000000&quot;&gt;end&lt;/font&gt;" style="ellipse;whiteSpace=wrap;html=1;rounded=0;fillColor=#d5e8d4;strokeColor=#82b366;" parent="WIyWlLk6GJQsqaUBKTNV-1" vertex="1"><mxGeometry x="750" y="1120" width="120" height="60" as="geometry"/></mxCell><mxCell id="VI_tDkUgzW6t_YD8F6Dv-100" value="&lt;font color=&quot;#000000&quot;&gt;end&lt;/font&gt;" style="ellipse;whiteSpace=wrap;html=1;fillColor=#d5e8d4;strokeColor=#82b366;" parent="WIyWlLk6GJQsqaUBKTNV-1" vertex="1"><mxGeometry x="910" y="1220" width="120" height="60" as="geometry"/></mxCell><mxCell id="VI_tDkUgzW6t_YD8F6Dv-102" value="&lt;font color=&quot;#000000&quot;&gt;end&lt;/font&gt;" style="ellipse;whiteSpace=wrap;html=1;fillColor=#d5e8d4;strokeColor=#82b366;" parent="WIyWlLk6GJQsqaUBKTNV-1" vertex="1"><mxGeometry x="750" y="1310" width="120" height="80" as="geometry"/></mxCell><mxCell id="VI_tDkUgzW6t_YD8F6Dv-107" value="" style="edgeStyle=orthogonalEdgeStyle;rounded=0;orthogonalLoop=1;jettySize=auto;html=1;fillColor=#dae8fc;strokeColor=#6c8ebf;fontColor=#0F0F0F;" parent="WIyWlLk6GJQsqaUBKTNV-1" source="VI_tDkUgzW6t_YD8F6Dv-104" target="VI_tDkUgzW6t_YD8F6Dv-106" edge="1"><mxGeometry relative="1" as="geometry"/></mxCell><mxCell id="VI_tDkUgzW6t_YD8F6Dv-104" value="phones" style="shape=process;whiteSpace=wrap;html=1;backgroundOutline=1;fillColor=#dae8fc;strokeColor=#6c8ebf;fontColor=#0F0F0F;" parent="WIyWlLk6GJQsqaUBKTNV-1" vertex="1"><mxGeometry y="1460" width="120" height="60" as="geometry"/></mxCell><mxCell id="VI_tDkUgzW6t_YD8F6Dv-109" value="" style="edgeStyle=orthogonalEdgeStyle;rounded=0;orthogonalLoop=1;jettySize=auto;html=1;fillColor=#dae8fc;strokeColor=#6c8ebf;fontColor=#0F0F0F;" parent="WIyWlLk6GJQsqaUBKTNV-1" source="VI_tDkUgzW6t_YD8F6Dv-106" target="VI_tDkUgzW6t_YD8F6Dv-108" edge="1"><mxGeometry relative="1" as="geometry"/></mxCell><mxCell id="VI_tDkUgzW6t_YD8F6Dv-106" value="input data as prompted" style="shape=parallelogram;perimeter=parallelogramPerimeter;whiteSpace=wrap;html=1;fixedSize=1;fillColor=#dae8fc;strokeColor=#6c8ebf;fontColor=#0F0F0F;" parent="WIyWlLk6GJQsqaUBKTNV-1" vertex="1"><mxGeometry x="160" y="1460" width="120" height="60" as="geometry"/></mxCell><mxCell id="VI_tDkUgzW6t_YD8F6Dv-112" value="" style="edgeStyle=orthogonalEdgeStyle;rounded=0;orthogonalLoop=1;jettySize=auto;html=1;fillColor=#dae8fc;strokeColor=#6c8ebf;fontColor=#0F0F0F;" parent="WIyWlLk6GJQsqaUBKTNV-1" source="VI_tDkUgzW6t_YD8F6Dv-108" target="VI_tDkUgzW6t_YD8F6Dv-111" edge="1"><mxGeometry relative="1" as="geometry"/></mxCell><mxCell id="VI_tDkUgzW6t_YD8F6Dv-108" value="data is added to phone object" style="whiteSpace=wrap;html=1;fillColor=#dae8fc;strokeColor=#6c8ebf;fontColor=#0F0F0F;" parent="WIyWlLk6GJQsqaUBKTNV-1" vertex="1"><mxGeometry x="320" y="1460" width="120" height="60" as="geometry"/></mxCell><mxCell id="VI_tDkUgzW6t_YD8F6Dv-111" value="end" style="ellipse;whiteSpace=wrap;html=1;fillColor=#dae8fc;strokeColor=#6c8ebf;fontColor=#0F0F0F;" parent="WIyWlLk6GJQsqaUBKTNV-1" vertex="1"><mxGeometry x="480" y="1460" width="120" height="60" as="geometry"/></mxCell><mxCell id="VI_tDkUgzW6t_YD8F6Dv-113" value="" style="edgeStyle=orthogonalEdgeStyle;rounded=0;orthogonalLoop=1;jettySize=auto;html=1;fillColor=#dae8fc;strokeColor=#6c8ebf;fontColor=#0F0F0F;" parent="WIyWlLk6GJQsqaUBKTNV-1" source="VI_tDkUgzW6t_YD8F6Dv-114" target="VI_tDkUgzW6t_YD8F6Dv-116" edge="1"><mxGeometry relative="1" as="geometry"/></mxCell><mxCell id="VI_tDkUgzW6t_YD8F6Dv-114" value="pc hardware" style="shape=process;whiteSpace=wrap;html=1;backgroundOutline=1;fillColor=#dae8fc;strokeColor=#6c8ebf;fontColor=#0F0F0F;" parent="WIyWlLk6GJQsqaUBKTNV-1" vertex="1"><mxGeometry y="1560" width="120" height="60" as="geometry"/></mxCell><mxCell id="VI_tDkUgzW6t_YD8F6Dv-115" value="" style="edgeStyle=orthogonalEdgeStyle;rounded=0;orthogonalLoop=1;jettySize=auto;html=1;fillColor=#dae8fc;strokeColor=#6c8ebf;fontColor=#0F0F0F;" parent="WIyWlLk6GJQsqaUBKTNV-1" source="VI_tDkUgzW6t_YD8F6Dv-116" target="VI_tDkUgzW6t_YD8F6Dv-118" edge="1"><mxGeometry relative="1" as="geometry"/></mxCell><mxCell id="VI_tDkUgzW6t_YD8F6Dv-116" value="input data as prompted" style="shape=parallelogram;perimeter=parallelogramPerimeter;whiteSpace=wrap;html=1;fixedSize=1;fillColor=#dae8fc;strokeColor=#6c8ebf;fontColor=#0F0F0F;" parent="WIyWlLk6GJQsqaUBKTNV-1" vertex="1"><mxGeometry x="160" y="1560" width="120" height="60" as="geometry"/></mxCell><mxCell id="VI_tDkUgzW6t_YD8F6Dv-117" value="" style="edgeStyle=orthogonalEdgeStyle;rounded=0;orthogonalLoop=1;jettySize=auto;html=1;fillColor=#dae8fc;strokeColor=#6c8ebf;fontColor=#0F0F0F;" parent="WIyWlLk6GJQsqaUBKTNV-1" source="VI_tDkUgzW6t_YD8F6Dv-118" target="VI_tDkUgzW6t_YD8F6Dv-119" edge="1"><mxGeometry relative="1" as="geometry"/></mxCell><mxCell id="VI_tDkUgzW6t_YD8F6Dv-118" value="data is added to pc hardware object" style="whiteSpace=wrap;html=1;fillColor=#dae8fc;strokeColor=#6c8ebf;fontColor=#0F0F0F;" parent="WIyWlLk6GJQsqaUBKTNV-1" vertex="1"><mxGeometry x="320" y="1560" width="120" height="60" as="geometry"/></mxCell><mxCell id="VI_tDkUgzW6t_YD8F6Dv-119" value="end" style="ellipse;whiteSpace=wrap;html=1;fillColor=#dae8fc;strokeColor=#6c8ebf;fontColor=#0F0F0F;" parent="WIyWlLk6GJQsqaUBKTNV-1" vertex="1"><mxGeometry x="480" y="1560" width="120" height="60" as="geometry"/></mxCell><mxCell id="VI_tDkUgzW6t_YD8F6Dv-120" value="" style="edgeStyle=orthogonalEdgeStyle;rounded=0;orthogonalLoop=1;jettySize=auto;html=1;fillColor=#dae8fc;strokeColor=#6c8ebf;fontColor=#0F0F0F;" parent="WIyWlLk6GJQsqaUBKTNV-1" source="VI_tDkUgzW6t_YD8F6Dv-121" target="VI_tDkUgzW6t_YD8F6Dv-123" edge="1"><mxGeometry relative="1" as="geometry"/></mxCell><mxCell id="VI_tDkUgzW6t_YD8F6Dv-121" value="cameras" style="shape=process;whiteSpace=wrap;html=1;backgroundOutline=1;fillColor=#dae8fc;strokeColor=#6c8ebf;fontColor=#0F0F0F;" parent="WIyWlLk6GJQsqaUBKTNV-1" vertex="1"><mxGeometry y="1660" width="120" height="60" as="geometry"/></mxCell><mxCell id="VI_tDkUgzW6t_YD8F6Dv-122" value="" style="edgeStyle=orthogonalEdgeStyle;rounded=0;orthogonalLoop=1;jettySize=auto;html=1;fillColor=#dae8fc;strokeColor=#6c8ebf;fontColor=#0F0F0F;" parent="WIyWlLk6GJQsqaUBKTNV-1" source="VI_tDkUgzW6t_YD8F6Dv-123" target="VI_tDkUgzW6t_YD8F6Dv-125" edge="1"><mxGeometry relative="1" as="geometry"/></mxCell><mxCell id="VI_tDkUgzW6t_YD8F6Dv-123" value="input data as prompted" style="shape=parallelogram;perimeter=parallelogramPerimeter;whiteSpace=wrap;html=1;fixedSize=1;fillColor=#dae8fc;strokeColor=#6c8ebf;fontColor=#0F0F0F;" parent="WIyWlLk6GJQsqaUBKTNV-1" vertex="1"><mxGeometry x="160" y="1660" width="120" height="60" as="geometry"/></mxCell><mxCell id="VI_tDkUgzW6t_YD8F6Dv-124" value="" style="edgeStyle=orthogonalEdgeStyle;rounded=0;orthogonalLoop=1;jettySize=auto;html=1;fillColor=#dae8fc;strokeColor=#6c8ebf;fontColor=#0F0F0F;" parent="WIyWlLk6GJQsqaUBKTNV-1" source="VI_tDkUgzW6t_YD8F6Dv-125" target="VI_tDkUgzW6t_YD8F6Dv-126" edge="1"><mxGeometry relative="1" as="geometry"/></mxCell><mxCell id="VI_tDkUgzW6t_YD8F6Dv-125" value="data is added to cameras object" style="whiteSpace=wrap;html=1;fillColor=#dae8fc;strokeColor=#6c8ebf;fontColor=#0F0F0F;" parent="WIyWlLk6GJQsqaUBKTNV-1" vertex="1"><mxGeometry x="320" y="1660" width="120" height="60" as="geometry"/></mxCell><mxCell id="VI_tDkUgzW6t_YD8F6Dv-126" value="end" style="ellipse;whiteSpace=wrap;html=1;fillColor=#dae8fc;strokeColor=#6c8ebf;fontColor=#0F0F0F;" parent="WIyWlLk6GJQsqaUBKTNV-1" vertex="1"><mxGeometry x="480" y="1660" width="120" height="60" as="geometry"/></mxCell><mxCell id="VI_tDkUgzW6t_YD8F6Dv-127" value="write to files" style="shape=process;whiteSpace=wrap;html=1;backgroundOutline=1;fillColor=#f5f5f5;fontColor=#333333;strokeColor=#666666;" parent="WIyWlLk6GJQsqaUBKTNV-1" vertex="1"><mxGeometry x="800" y="10" width="120" height="60" as="geometry"/></mxCell><mxCell id="VI_tDkUgzW6t_YD8F6Dv-131" value="" style="edgeStyle=orthogonalEdgeStyle;rounded=0;orthogonalLoop=1;jettySize=auto;html=1;fillColor=#f5f5f5;strokeColor=#666666;fontColor=#0F0F0F;" parent="WIyWlLk6GJQsqaUBKTNV-1" source="VI_tDkUgzW6t_YD8F6Dv-129" target="VI_tDkUgzW6t_YD8F6Dv-130" edge="1"><mxGeometry relative="1" as="geometry"/></mxCell><mxCell id="VI_tDkUgzW6t_YD8F6Dv-129" value="write to files" style="shape=process;whiteSpace=wrap;html=1;backgroundOutline=1;fillColor=#f5f5f5;fontColor=#0F0F0F;strokeColor=#666666;" parent="WIyWlLk6GJQsqaUBKTNV-1" vertex="1"><mxGeometry y="1900" width="120" height="60" as="geometry"/></mxCell><mxCell id="hmivGs_bVHkpQ192sONv-1" value="" style="edgeStyle=orthogonalEdgeStyle;rounded=0;orthogonalLoop=1;jettySize=auto;html=1;fillColor=#f5f5f5;strokeColor=#666666;fontColor=#0F0F0F;" parent="WIyWlLk6GJQsqaUBKTNV-1" source="VI_tDkUgzW6t_YD8F6Dv-130" target="hmivGs_bVHkpQ192sONv-0" edge="1"><mxGeometry relative="1" as="geometry"/></mxCell><mxCell id="hmivGs_bVHkpQ192sONv-5" value="" style="edgeStyle=orthogonalEdgeStyle;rounded=0;orthogonalLoop=1;jettySize=auto;html=1;fillColor=#f5f5f5;strokeColor=#666666;fontColor=#0F0F0F;" parent="WIyWlLk6GJQsqaUBKTNV-1" source="VI_tDkUgzW6t_YD8F6Dv-130" target="hmivGs_bVHkpQ192sONv-4" edge="1"><mxGeometry relative="1" as="geometry"/></mxCell><mxCell id="hmivGs_bVHkpQ192sONv-7" value="" style="edgeStyle=orthogonalEdgeStyle;rounded=0;orthogonalLoop=1;jettySize=auto;html=1;fillColor=#f5f5f5;strokeColor=#666666;fontColor=#0F0F0F;" parent="WIyWlLk6GJQsqaUBKTNV-1" source="VI_tDkUgzW6t_YD8F6Dv-130" target="hmivGs_bVHkpQ192sONv-6" edge="1"><mxGeometry relative="1" as="geometry"/></mxCell><mxCell id="VI_tDkUgzW6t_YD8F6Dv-130" value="get choice" style="rounded=0;whiteSpace=wrap;html=1;fillColor=#f5f5f5;fontColor=#0F0F0F;strokeColor=#666666;" parent="WIyWlLk6GJQsqaUBKTNV-1" vertex="1"><mxGeometry x="480" y="1900" width="120" height="60" as="geometry"/></mxCell><mxCell id="hmivGs_bVHkpQ192sONv-15" value="" style="edgeStyle=orthogonalEdgeStyle;rounded=0;orthogonalLoop=1;jettySize=auto;html=1;fillColor=#f5f5f5;strokeColor=#666666;fontColor=#0F0F0F;" parent="WIyWlLk6GJQsqaUBKTNV-1" source="hmivGs_bVHkpQ192sONv-0" target="hmivGs_bVHkpQ192sONv-14" edge="1"><mxGeometry relative="1" as="geometry"/></mxCell><mxCell id="hmivGs_bVHkpQ192sONv-0" value="write the data of the camera object to the camera file&lt;br&gt;on a new line" style="rounded=0;whiteSpace=wrap;html=1;fillColor=#f5f5f5;fontColor=#0F0F0F;strokeColor=#666666;" parent="WIyWlLk6GJQsqaUBKTNV-1" vertex="1"><mxGeometry x="480" y="1800" width="120" height="60" as="geometry"/></mxCell><mxCell id="hmivGs_bVHkpQ192sONv-2" value="1" style="text;html=1;align=center;verticalAlign=middle;whiteSpace=wrap;rounded=0;fontColor=#0F0F0F;" parent="WIyWlLk6GJQsqaUBKTNV-1" vertex="1"><mxGeometry x="500" y="1870" width="60" height="30" as="geometry"/></mxCell><mxCell id="hmivGs_bVHkpQ192sONv-17" value="" style="edgeStyle=orthogonalEdgeStyle;rounded=0;orthogonalLoop=1;jettySize=auto;html=1;fillColor=#f5f5f5;strokeColor=#666666;fontColor=#0F0F0F;" parent="WIyWlLk6GJQsqaUBKTNV-1" source="hmivGs_bVHkpQ192sONv-3" target="hmivGs_bVHkpQ192sONv-16" edge="1"><mxGeometry relative="1" as="geometry"/></mxCell><mxCell id="hmivGs_bVHkpQ192sONv-3" value="do you want to add the record last created to the file?" style="shape=parallelogram;perimeter=parallelogramPerimeter;whiteSpace=wrap;html=1;fixedSize=1;fillColor=#f5f5f5;fontColor=#0F0F0F;strokeColor=#666666;" parent="WIyWlLk6GJQsqaUBKTNV-1" vertex="1"><mxGeometry x="160" y="1900" width="120" height="60" as="geometry"/></mxCell><mxCell id="hmivGs_bVHkpQ192sONv-13" value="" style="edgeStyle=orthogonalEdgeStyle;rounded=0;orthogonalLoop=1;jettySize=auto;html=1;fillColor=#f5f5f5;strokeColor=#666666;fontColor=#0F0F0F;" parent="WIyWlLk6GJQsqaUBKTNV-1" source="hmivGs_bVHkpQ192sONv-4" target="hmivGs_bVHkpQ192sONv-12" edge="1"><mxGeometry relative="1" as="geometry"/></mxCell><mxCell id="hmivGs_bVHkpQ192sONv-4" value="write the data of the phones object to the camera file&lt;br&gt;on a new line" style="rounded=0;whiteSpace=wrap;html=1;fillColor=#f5f5f5;fontColor=#0F0F0F;strokeColor=#666666;" parent="WIyWlLk6GJQsqaUBKTNV-1" vertex="1"><mxGeometry x="640" y="1900" width="120" height="60" as="geometry"/></mxCell><mxCell id="hmivGs_bVHkpQ192sONv-11" value="" style="edgeStyle=orthogonalEdgeStyle;rounded=0;orthogonalLoop=1;jettySize=auto;html=1;fillColor=#f5f5f5;strokeColor=#666666;fontColor=#0F0F0F;" parent="WIyWlLk6GJQsqaUBKTNV-1" source="hmivGs_bVHkpQ192sONv-6" target="hmivGs_bVHkpQ192sONv-10" edge="1"><mxGeometry relative="1" as="geometry"/></mxCell><mxCell id="hmivGs_bVHkpQ192sONv-6" value="write the data of the pc hardware object to the camera file&lt;br&gt;on a new line" style="rounded=0;whiteSpace=wrap;html=1;fillColor=#f5f5f5;fontColor=#0F0F0F;strokeColor=#666666;" parent="WIyWlLk6GJQsqaUBKTNV-1" vertex="1"><mxGeometry x="480" y="2000" width="120" height="60" as="geometry"/></mxCell><mxCell id="hmivGs_bVHkpQ192sONv-8" value="3" style="text;html=1;align=center;verticalAlign=middle;whiteSpace=wrap;rounded=0;fontColor=#0F0F0F;" parent="WIyWlLk6GJQsqaUBKTNV-1" vertex="1"><mxGeometry x="590" y="1900" width="60" height="30" as="geometry"/></mxCell><mxCell id="hmivGs_bVHkpQ192sONv-9" value="2" style="text;html=1;align=center;verticalAlign=middle;whiteSpace=wrap;rounded=0;fontColor=#0F0F0F;" parent="WIyWlLk6GJQsqaUBKTNV-1" vertex="1"><mxGeometry x="500" y="1960" width="60" height="30" as="geometry"/></mxCell><mxCell id="hmivGs_bVHkpQ192sONv-10" value="end" style="ellipse;whiteSpace=wrap;html=1;fillColor=#f5f5f5;strokeColor=#666666;fontColor=#0F0F0F;rounded=0;" parent="WIyWlLk6GJQsqaUBKTNV-1" vertex="1"><mxGeometry x="640" y="2000" width="120" height="60" as="geometry"/></mxCell><mxCell id="hmivGs_bVHkpQ192sONv-12" value="end" style="ellipse;whiteSpace=wrap;html=1;fillColor=#f5f5f5;strokeColor=#666666;fontColor=#0F0F0F;rounded=0;" parent="WIyWlLk6GJQsqaUBKTNV-1" vertex="1"><mxGeometry x="800" y="1900" width="120" height="60" as="geometry"/></mxCell><mxCell id="hmivGs_bVHkpQ192sONv-14" value="end" style="ellipse;whiteSpace=wrap;html=1;fillColor=#f5f5f5;strokeColor=#666666;fontColor=#0F0F0F;rounded=0;" parent="WIyWlLk6GJQsqaUBKTNV-1" vertex="1"><mxGeometry x="640" y="1800" width="120" height="60" as="geometry"/></mxCell><mxCell id="hmivGs_bVHkpQ192sONv-16" value="end" style="ellipse;whiteSpace=wrap;html=1;fillColor=#f5f5f5;fontColor=#0F0F0F;strokeColor=#666666;" parent="WIyWlLk6GJQsqaUBKTNV-1" vertex="1"><mxGeometry x="160" y="2000" width="120" height="80" as="geometry"/></mxCell><mxCell id="hmivGs_bVHkpQ192sONv-39" style="edgeStyle=orthogonalEdgeStyle;rounded=0;orthogonalLoop=1;jettySize=auto;html=1;exitX=0.5;exitY=1;exitDx=0;exitDy=0;entryX=0;entryY=0.5;entryDx=0;entryDy=0;fontColor=#0F0F0F;" parent="WIyWlLk6GJQsqaUBKTNV-1" source="hmivGs_bVHkpQ192sONv-19" target="hmivGs_bVHkpQ192sONv-26" edge="1"><mxGeometry relative="1" as="geometry"><mxPoint x="310" y="2160" as="targetPoint"/><Array as="points"><mxPoint x="380" y="2060"/><mxPoint x="280" y="2060"/><mxPoint x="280" y="2210"/></Array></mxGeometry></mxCell><mxCell id="hmivGs_bVHkpQ192sONv-19" value="do you want to add or subtract the stock" style="shape=parallelogram;perimeter=parallelogramPerimeter;whiteSpace=wrap;html=1;fixedSize=1;fillColor=#f5f5f5;fontColor=#0F0F0F;strokeColor=#666666;" parent="WIyWlLk6GJQsqaUBKTNV-1" vertex="1"><mxGeometry x="320" y="1900" width="120" height="60" as="geometry"/></mxCell><mxCell id="hmivGs_bVHkpQ192sONv-20" value="yes" style="text;html=1;strokeColor=none;fillColor=none;align=center;verticalAlign=middle;whiteSpace=wrap;rounded=0;fontColor=#0F0F0F;" parent="WIyWlLk6GJQsqaUBKTNV-1" vertex="1"><mxGeometry x="270" y="1910" width="60" height="30" as="geometry"/></mxCell><mxCell id="hmivGs_bVHkpQ192sONv-21" value="no" style="text;html=1;strokeColor=none;fillColor=none;align=center;verticalAlign=middle;whiteSpace=wrap;rounded=0;fontColor=#0F0F0F;" parent="WIyWlLk6GJQsqaUBKTNV-1" vertex="1"><mxGeometry x="180" y="1960" width="60" height="30" as="geometry"/></mxCell><mxCell id="hmivGs_bVHkpQ192sONv-22" value="add" style="text;html=1;strokeColor=none;fillColor=none;align=center;verticalAlign=middle;whiteSpace=wrap;rounded=0;fontColor=#0F0F0F;" parent="WIyWlLk6GJQsqaUBKTNV-1" vertex="1"><mxGeometry x="430" y="1909" width="60" height="30" as="geometry"/></mxCell><mxCell id="hmivGs_bVHkpQ192sONv-23" value="" style="edgeStyle=orthogonalEdgeStyle;rounded=0;orthogonalLoop=1;jettySize=auto;html=1;fillColor=#f5f5f5;strokeColor=#666666;fontColor=#0F0F0F;" parent="WIyWlLk6GJQsqaUBKTNV-1" source="hmivGs_bVHkpQ192sONv-26" target="hmivGs_bVHkpQ192sONv-28" edge="1"><mxGeometry relative="1" as="geometry"/></mxCell><mxCell id="hmivGs_bVHkpQ192sONv-24" value="" style="edgeStyle=orthogonalEdgeStyle;rounded=0;orthogonalLoop=1;jettySize=auto;html=1;fillColor=#f5f5f5;strokeColor=#666666;fontColor=#0F0F0F;" parent="WIyWlLk6GJQsqaUBKTNV-1" source="hmivGs_bVHkpQ192sONv-26" target="hmivGs_bVHkpQ192sONv-31" edge="1"><mxGeometry relative="1" as="geometry"/></mxCell><mxCell id="hmivGs_bVHkpQ192sONv-25" value="" style="edgeStyle=orthogonalEdgeStyle;rounded=0;orthogonalLoop=1;jettySize=auto;html=1;fillColor=#f5f5f5;strokeColor=#666666;fontColor=#0F0F0F;" parent="WIyWlLk6GJQsqaUBKTNV-1" source="hmivGs_bVHkpQ192sONv-26" target="hmivGs_bVHkpQ192sONv-33" edge="1"><mxGeometry relative="1" as="geometry"/></mxCell><mxCell id="hmivGs_bVHkpQ192sONv-26" value="get choice" style="rounded=0;whiteSpace=wrap;html=1;fillColor=#f5f5f5;fontColor=#0F0F0F;strokeColor=#666666;" parent="WIyWlLk6GJQsqaUBKTNV-1" vertex="1"><mxGeometry x="320" y="2180" width="120" height="60" as="geometry"/></mxCell><mxCell id="hmivGs_bVHkpQ192sONv-27" value="" style="edgeStyle=orthogonalEdgeStyle;rounded=0;orthogonalLoop=1;jettySize=auto;html=1;fillColor=#f5f5f5;strokeColor=#666666;fontColor=#0F0F0F;" parent="WIyWlLk6GJQsqaUBKTNV-1" source="hmivGs_bVHkpQ192sONv-28" target="hmivGs_bVHkpQ192sONv-38" edge="1"><mxGeometry relative="1" as="geometry"/></mxCell><mxCell id="hmivGs_bVHkpQ192sONv-28" value="remove the data of the camera object from the camera file&lt;br&gt;" style="rounded=0;whiteSpace=wrap;html=1;fillColor=#f5f5f5;fontColor=#0F0F0F;strokeColor=#666666;" parent="WIyWlLk6GJQsqaUBKTNV-1" vertex="1"><mxGeometry x="320" y="2080" width="120" height="60" as="geometry"/></mxCell><mxCell id="hmivGs_bVHkpQ192sONv-29" value="1" style="text;html=1;align=center;verticalAlign=middle;whiteSpace=wrap;rounded=0;fontColor=#0F0F0F;" parent="WIyWlLk6GJQsqaUBKTNV-1" vertex="1"><mxGeometry x="340" y="2150" width="60" height="30" as="geometry"/></mxCell><mxCell id="hmivGs_bVHkpQ192sONv-30" value="" style="edgeStyle=orthogonalEdgeStyle;rounded=0;orthogonalLoop=1;jettySize=auto;html=1;fillColor=#f5f5f5;strokeColor=#666666;fontColor=#0F0F0F;" parent="WIyWlLk6GJQsqaUBKTNV-1" source="hmivGs_bVHkpQ192sONv-31" target="hmivGs_bVHkpQ192sONv-37" edge="1"><mxGeometry relative="1" as="geometry"/></mxCell><mxCell id="hmivGs_bVHkpQ192sONv-31" value="remove the data of the phones object from the camera file" style="rounded=0;whiteSpace=wrap;html=1;fillColor=#f5f5f5;fontColor=#0F0F0F;strokeColor=#666666;" parent="WIyWlLk6GJQsqaUBKTNV-1" vertex="1"><mxGeometry x="480" y="2180" width="120" height="60" as="geometry"/></mxCell><mxCell id="hmivGs_bVHkpQ192sONv-32" value="" style="edgeStyle=orthogonalEdgeStyle;rounded=0;orthogonalLoop=1;jettySize=auto;html=1;fillColor=#f5f5f5;strokeColor=#666666;fontColor=#0F0F0F;" parent="WIyWlLk6GJQsqaUBKTNV-1" source="hmivGs_bVHkpQ192sONv-33" target="hmivGs_bVHkpQ192sONv-36" edge="1"><mxGeometry relative="1" as="geometry"/></mxCell><mxCell id="hmivGs_bVHkpQ192sONv-33" value="remove the data of the pc hardware object from the camera file" style="rounded=0;whiteSpace=wrap;html=1;fillColor=#f5f5f5;fontColor=#0F0F0F;strokeColor=#666666;" parent="WIyWlLk6GJQsqaUBKTNV-1" vertex="1"><mxGeometry x="320" y="2280" width="120" height="60" as="geometry"/></mxCell><mxCell id="hmivGs_bVHkpQ192sONv-34" value="3" style="text;html=1;align=center;verticalAlign=middle;whiteSpace=wrap;rounded=0;fontColor=#0F0F0F;" parent="WIyWlLk6GJQsqaUBKTNV-1" vertex="1"><mxGeometry x="430" y="2180" width="60" height="30" as="geometry"/></mxCell><mxCell id="hmivGs_bVHkpQ192sONv-35" value="2" style="text;html=1;align=center;verticalAlign=middle;whiteSpace=wrap;rounded=0;fontColor=#0F0F0F;" parent="WIyWlLk6GJQsqaUBKTNV-1" vertex="1"><mxGeometry x="340" y="2240" width="60" height="30" as="geometry"/></mxCell><mxCell id="hmivGs_bVHkpQ192sONv-36" value="end" style="ellipse;whiteSpace=wrap;html=1;fillColor=#f5f5f5;strokeColor=#666666;fontColor=#0F0F0F;rounded=0;" parent="WIyWlLk6GJQsqaUBKTNV-1" vertex="1"><mxGeometry x="480" y="2280" width="120" height="60" as="geometry"/></mxCell><mxCell id="hmivGs_bVHkpQ192sONv-37" value="end" style="ellipse;whiteSpace=wrap;html=1;fillColor=#f5f5f5;strokeColor=#666666;fontColor=#0F0F0F;rounded=0;" parent="WIyWlLk6GJQsqaUBKTNV-1" vertex="1"><mxGeometry x="640" y="2180" width="120" height="60" as="geometry"/></mxCell><mxCell id="hmivGs_bVHkpQ192sONv-38" value="end" style="ellipse;whiteSpace=wrap;html=1;fillColor=#f5f5f5;strokeColor=#666666;fontColor=#0F0F0F;rounded=0;" parent="WIyWlLk6GJQsqaUBKTNV-1" vertex="1"><mxGeometry x="480" y="2080" width="120" height="60" as="geometry"/></mxCell><mxCell id="hmivGs_bVHkpQ192sONv-40" value="subtract" style="text;html=1;strokeColor=none;fillColor=none;align=center;verticalAlign=middle;whiteSpace=wrap;rounded=0;fontColor=#0F0F0F;" parent="WIyWlLk6GJQsqaUBKTNV-1" vertex="1"><mxGeometry x="320" y="1980" width="60" height="30" as="geometry"/></mxCell><mxCell id="hmivGs_bVHkpQ192sONv-45" value="" style="edgeStyle=orthogonalEdgeStyle;rounded=0;orthogonalLoop=1;jettySize=auto;html=1;" parent="WIyWlLk6GJQsqaUBKTNV-1" source="hmivGs_bVHkpQ192sONv-41" target="hmivGs_bVHkpQ192sONv-44" edge="1"><mxGeometry relative="1" as="geometry"/></mxCell><mxCell id="hmivGs_bVHkpQ192sONv-41" value="&lt;font color=&quot;#000000&quot;&gt;do you want to manage stock or visualise data&lt;/font&gt;" style="rhombus;whiteSpace=wrap;html=1;fillColor=#d5e8d4;strokeColor=#82b366;" parent="WIyWlLk6GJQsqaUBKTNV-1" vertex="1"><mxGeometry x="200" y="1210" width="80" height="80" as="geometry"/></mxCell><mxCell id="hmivGs_bVHkpQ192sONv-42" value="" style="edgeStyle=orthogonalEdgeStyle;rounded=0;orthogonalLoop=1;jettySize=auto;html=1;endArrow=none;" parent="WIyWlLk6GJQsqaUBKTNV-1" source="VI_tDkUgzW6t_YD8F6Dv-80" target="hmivGs_bVHkpQ192sONv-41" edge="1"><mxGeometry relative="1" as="geometry"><mxPoint x="120" y="1250.0000000000002" as="sourcePoint"/><mxPoint x="440" y="1250.0000000000002" as="targetPoint"/></mxGeometry></mxCell><mxCell id="hmivGs_bVHkpQ192sONv-43" value="manage" style="text;html=1;strokeColor=none;fillColor=none;align=center;verticalAlign=middle;whiteSpace=wrap;rounded=0;" parent="WIyWlLk6GJQsqaUBKTNV-1" vertex="1"><mxGeometry x="320" y="1229" width="60" height="30" as="geometry"/></mxCell><mxCell id="hmivGs_bVHkpQ192sONv-44" value="&lt;font color=&quot;#000000&quot;&gt;visualise&lt;/font&gt;" style="shape=process;whiteSpace=wrap;html=1;backgroundOutline=1;fillColor=#e1d5e7;strokeColor=#9673a6;" parent="WIyWlLk6GJQsqaUBKTNV-1" vertex="1"><mxGeometry x="180" y="1320" width="120" height="60" as="geometry"/></mxCell><mxCell id="hmivGs_bVHkpQ192sONv-48" value="" style="edgeStyle=orthogonalEdgeStyle;rounded=0;orthogonalLoop=1;jettySize=auto;html=1;" parent="WIyWlLk6GJQsqaUBKTNV-1" source="hmivGs_bVHkpQ192sONv-46" target="hmivGs_bVHkpQ192sONv-47" edge="1"><mxGeometry relative="1" as="geometry"/></mxCell><mxCell id="hmivGs_bVHkpQ192sONv-46" value="visualise" style="shape=process;whiteSpace=wrap;html=1;backgroundOutline=1;" parent="WIyWlLk6GJQsqaUBKTNV-1" vertex="1"><mxGeometry y="2400" width="120" height="60" as="geometry"/></mxCell><mxCell id="hmivGs_bVHkpQ192sONv-50" value="" style="edgeStyle=orthogonalEdgeStyle;rounded=0;orthogonalLoop=1;jettySize=auto;html=1;" parent="WIyWlLk6GJQsqaUBKTNV-1" source="hmivGs_bVHkpQ192sONv-47" target="hmivGs_bVHkpQ192sONv-49" edge="1"><mxGeometry relative="1" as="geometry"/></mxCell><mxCell id="hmivGs_bVHkpQ192sONv-47" value="do you wish to&amp;nbsp;" style="rhombus;whiteSpace=wrap;html=1;" parent="WIyWlLk6GJQsqaUBKTNV-1" vertex="1"><mxGeometry x="160" y="2390" width="80" height="80" as="geometry"/></mxCell><mxCell id="hmivGs_bVHkpQ192sONv-49" value="" style="ellipse;whiteSpace=wrap;html=1;" parent="WIyWlLk6GJQsqaUBKTNV-1" vertex="1"><mxGeometry x="300" y="2400" width="120" height="60" as="geometry"/></mxCell></root></mxGraphModel></diagram></mxfile>